A young police officer must survive his first day's duty in a small country town. 
 
http://www.imdb.com/title/tt1530983/

Subtitles (srt) : Dutch.

Cover included.

Red Hill vertelt het verhaal van Shane Cooper (Ryan Kwanten), een jonge politieagent, die terugkeert naar het kleine stadje Red Hill om samen met zijn zwangere vrouw een gezin te stichten. Het nieuws van een gevangenisontsnapping zorgt voor paniek bij de lokale wetshandhavers. Jimmy Conway, een tot levenslang veroordeelde moordenaar, keert terug naar het geïsoleerde stadje om wraak te nemen. Shane's eerste dienstdag loopt al snel uit op een nachtmerrie.
 
http://www.moviemeter.nl/film/63881

Ondertitels (srt) : Nederlands.

Hoesje bijgevoegd.

General
Complete name                    : Red Hill-AC3-XviD-BRRip[Eng]2010\Red Hill-AC3-XviD-BRRip[Eng]2010.avi
Format                           : AVI
Format/Info                      : Audio Video Interleave
File size                        : 1.27 GiB
Duration                         : 1h 37mn
Overall bit rate                 : 1 865 Kbps
Writing application              : VirtualDubMod 1.5.4.1 (build 2178/release)
Writing library                  : VirtualDubMod build 2178/release
Source                           : Red.Hill.2010.720p.BluRay.x264-REFiNED 

Video
ID                               : 0
Format                           : MPEG-4 Visual
Format profile                   : Simple@L3
Format settings, BVOP            : No
Format settings, QPel            : No
Format settings, GMC             : No warppoints
Format settings, Matrix          : Default (H.263)
Codec ID                         : XVID
Codec ID/Hint                    : XviD
Duration                         : 1h 37mn
Bit rate                         : 1 408 Kbps
Width                            : 720 pixels
Height                           : 304 pixels
Display aspect ratio             : 2.35:1
Frame rate                       : 23.976 fps
Resolution                       : 8 bits
Colorimetry                      : 4:2:0
Scan type                        : Progressive
Bits/(Pixel*Frame)               : 0.268
Stream size                      : 978 MiB (75%)
Writing library                  : XviD 1.1.2 (UTC 2006-11-01)

Audio
ID                               : 1
Format                           : AC-3
Format/Info                      : Audio Coding 3
Codec ID                         : 2000
Duration                         : 1h 37mn
Bit rate mode                    : Constant
Bit rate                         : 448 Kbps
Channel(s)                       : 6 channels
Channel positions                : Front: L C R, Surround: L R, LFE
Sampling rate                    : 48.0 KHz
Stream size                      : 311 MiB (24%)
Alignment                        : Split accross interleaves
Interleave, duration             : 42 ms (1.00 video frame)
Interleave, preload duration     : 500 ms

Thanks to Simply ReleaseS for the Dutch subs... Nice job peeps!